<svg width="31" height="31" viewBox="0 0 31 31" fill="none" xmlns="http://www.w3.org/2000/svg">
<g id="queue">
<path id="Vector" d="M5.65106 8.40723H3.15106V25.9072C3.15106 27.2822 4.27606 28.4072 5.65106 28.4072H23.1511V25.9072H5.65106V8.40723ZM25.6511 3.40723H10.6511C9.27606 3.40723 8.15106 4.53223 8.15106 5.90723V20.9072C8.15106 22.2822 9.27606 23.4072 10.6511 23.4072H25.6511C27.0261 23.4072 28.1511 22.2822 28.1511 20.9072V5.90723C28.1511 4.53223 27.0261 3.40723 25.6511 3.40723ZM24.4011 14.6572H19.4011V19.6572H16.9011V14.6572H11.9011V12.1572H16.9011V7.15723H19.4011V12.1572H24.4011V14.6572Z" fill="#7788A7"/>
</g>
</svg>
