<svg width="25" height="25" viewBox="0 0 25 25" fill="none" xmlns="http://www.w3.org/2000/svg">
<g id="paperclip" clip-path="url(#clip0_59_37)">
<path id="Vector" d="M21.8596 11.4171L12.6696 20.6071C11.5438 21.733 10.0168 22.3654 8.42465 22.3654C6.83246 22.3654 5.30549 21.733 4.17965 20.6071C3.0538 19.4813 2.42131 17.9543 2.42131 16.3621C2.42131 14.7699 3.0538 13.243 4.17965 12.1171L13.3696 2.92711C14.1202 2.17654 15.1382 1.75488 16.1996 1.75488C17.2611 1.75488 18.2791 2.17654 19.0296 2.92711C19.7802 3.67767 20.2019 4.69565 20.2019 5.75711C20.2019 6.81856 19.7802 7.83654 19.0296 8.58711L9.82965 17.7771C9.45437 18.1524 8.94538 18.3632 8.41465 18.3632C7.88392 18.3632 7.37493 18.1524 6.99965 17.7771C6.62437 17.4018 6.41353 16.8928 6.41353 16.3621C6.41353 15.8314 6.62437 15.3224 6.99965 14.9471L15.4896 6.46711" stroke="#7788A7" stroke-width="2" stroke-linecap="round" stroke-linejoin="round"/>
</g>
<defs>
<clipPath id="clip0_59_37">
<rect width="24" height="24" fill="white" transform="translate(0.419647 0.367188)"/>
</clipPath>
</defs>
</svg>
