<svg width="25" height="25" viewBox="0 0 25 25" fill="none" xmlns="http://www.w3.org/2000/svg">
<g id="person_outline">
<path id="Vector" d="M12.1464 6.80723C13.3064 6.80723 14.2464 7.74723 14.2464 8.90723C14.2464 10.0672 13.3064 11.0072 12.1464 11.0072C10.9864 11.0072 10.0464 10.0672 10.0464 8.90723C10.0464 7.74723 10.9864 6.80723 12.1464 6.80723ZM12.1464 15.8072C15.1164 15.8072 18.2464 17.2672 18.2464 17.9072V19.0072H6.04642V17.9072C6.04642 17.2672 9.17642 15.8072 12.1464 15.8072ZM12.1464 4.90723C9.93642 4.90723 8.14642 6.69723 8.14642 8.90723C8.14642 11.1172 9.93642 12.9072 12.1464 12.9072C14.3564 12.9072 16.1464 11.1172 16.1464 8.90723C16.1464 6.69723 14.3564 4.90723 12.1464 4.90723ZM12.1464 13.9072C9.47642 13.9072 4.14642 15.2472 4.14642 17.9072V20.9072H20.1464V17.9072C20.1464 15.2472 14.8164 13.9072 12.1464 13.9072Z" fill="white"/>
</g>
</svg>
