<svg width="22" height="22" viewBox="0 0 22 22" fill="none" xmlns="http://www.w3.org/2000/svg">
<path d="M10.505 5.51284C11.52 5.51284 12.3425 6.33534 12.3425 7.35034C12.3425 8.36534 11.52 9.18784 10.505 9.18784C9.49001 9.18784 8.6675 8.36534 8.6675 7.35034C8.6675 6.33534 9.49001 5.51284 10.505 5.51284ZM10.505 13.3878C13.1038 13.3878 15.8425 14.6653 15.8425 15.2253V16.1878H5.16751V15.2253C5.16751 14.6653 7.90625 13.3878 10.505 13.3878ZM10.505 3.85034C8.57125 3.85034 7.005 5.41659 7.005 7.35034C7.005 9.28409 8.57125 10.8503 10.505 10.8503C12.4388 10.8503 14.005 9.28409 14.005 7.35034C14.005 5.41659 12.4388 3.85034 10.505 3.85034ZM10.505 11.7253C8.16875 11.7253 3.505 12.8978 3.505 15.2253V17.8503H17.505V15.2253C17.505 12.8978 12.8413 11.7253 10.505 11.7253Z" fill="#7788A7"/>
</svg>
