<svg width="19" height="19" viewBox="0 0 19 19" fill="none" xmlns="http://www.w3.org/2000/svg">
<g id="settings" clip-path="url(#clip0_2_469)">
<path id="Vector" d="M9.505 11.395C10.7476 11.395 11.755 10.3877 11.755 9.14502C11.755 7.90238 10.7476 6.89502 9.505 6.89502C8.26236 6.89502 7.255 7.90238 7.255 9.14502C7.255 10.3877 8.26236 11.395 9.505 11.395Z" stroke="#7788A7" stroke-width="2" stroke-linecap="round" stroke-linejoin="round"/>
<path id="Vector_2" d="M15.055 11.395C14.9552 11.6212 14.9254 11.8722 14.9695 12.1155C15.0136 12.3588 15.1296 12.5833 15.3025 12.76L15.3475 12.805C15.487 12.9443 15.5976 13.1098 15.6731 13.2919C15.7486 13.474 15.7874 13.6691 15.7874 13.8663C15.7874 14.0634 15.7486 14.2586 15.6731 14.4407C15.5976 14.6228 15.487 14.7882 15.3475 14.9275C15.2082 15.067 15.0428 15.1776 14.8607 15.2531C14.6786 15.3286 14.4834 15.3674 14.2863 15.3674C14.0891 15.3674 13.8939 15.3286 13.7119 15.2531C13.5298 15.1776 13.3643 15.067 13.225 14.9275L13.18 14.8825C13.0033 14.7096 12.7788 14.5936 12.5355 14.5495C12.2922 14.5054 12.0412 14.5352 11.815 14.635C11.5932 14.7301 11.404 14.888 11.2707 15.0892C11.1375 15.2904 11.066 15.5262 11.065 15.7675V15.895C11.065 16.2928 10.907 16.6744 10.6257 16.9557C10.3444 17.237 9.96284 17.395 9.56501 17.395C9.16719 17.395 8.78566 17.237 8.50435 16.9557C8.22305 16.6744 8.06501 16.2928 8.06501 15.895V15.8275C8.05921 15.5793 7.97885 15.3385 7.8344 15.1365C7.68994 14.9346 7.48806 14.7807 7.25501 14.695C7.0288 14.5952 6.77787 14.5654 6.53457 14.6095C6.29128 14.6536 6.06677 14.7696 5.89001 14.9425L5.84501 14.9875C5.7057 15.127 5.54027 15.2376 5.35817 15.3131C5.17608 15.3886 4.98089 15.4274 4.78376 15.4274C4.58664 15.4274 4.39145 15.3886 4.20935 15.3131C4.02726 15.2376 3.86182 15.127 3.72251 14.9875C3.58305 14.8482 3.47241 14.6828 3.39692 14.5007C3.32144 14.3186 3.28258 14.1234 3.28258 13.9263C3.28258 13.7291 3.32144 13.534 3.39692 13.3519C3.47241 13.1698 3.58305 13.0043 3.72251 12.865L3.76751 12.82C3.94042 12.6433 4.0564 12.4188 4.10052 12.1755C4.14463 11.9322 4.11485 11.6812 4.01501 11.455C3.91994 11.2332 3.76208 11.044 3.56086 10.9107C3.35964 10.7775 3.12385 10.706 2.88251 10.705H2.75501C2.35719 10.705 1.97566 10.547 1.69435 10.2657C1.41305 9.98437 1.25501 9.60284 1.25501 9.20502C1.25501 8.80719 1.41305 8.42566 1.69435 8.14436C1.97566 7.86306 2.35719 7.70502 2.75501 7.70502H2.82251C3.07076 7.69921 3.31152 7.61886 3.51349 7.4744C3.71546 7.32995 3.8693 7.12807 3.95501 6.89502C4.05485 6.66881 4.08463 6.41787 4.04052 6.17458C3.9964 5.93128 3.88042 5.70678 3.70751 5.53002L3.66251 5.48502C3.52305 5.34571 3.41241 5.18028 3.33692 4.99818C3.26144 4.81608 3.22258 4.62089 3.22258 4.42377C3.22258 4.22665 3.26144 4.03146 3.33692 3.84936C3.41241 3.66726 3.52305 3.50183 3.66251 3.36252C3.80182 3.22305 3.96726 3.11242 4.14935 3.03693C4.33145 2.96144 4.52664 2.92259 4.72376 2.92259C4.92089 2.92259 5.11608 2.96144 5.29817 3.03693C5.48027 3.11242 5.6457 3.22305 5.78501 3.36252L5.83001 3.40752C6.00677 3.58042 6.23127 3.69641 6.47457 3.74052C6.71787 3.78464 6.9688 3.75486 7.19501 3.65502H7.25501C7.47684 3.55995 7.66603 3.40209 7.79928 3.20087C7.93254 2.99965 8.00405 2.76386 8.00501 2.52252V2.39502C8.00501 1.99719 8.16305 1.61566 8.44435 1.33436C8.72566 1.05305 9.10719 0.89502 9.50501 0.89502C9.90284 0.89502 10.2844 1.05305 10.5657 1.33436C10.847 1.61566 11.005 1.99719 11.005 2.39502V2.46252C11.006 2.70386 11.0775 2.93965 11.2107 3.14087C11.344 3.34209 11.5332 3.49995 11.755 3.59502C11.9812 3.69486 12.2322 3.72464 12.4755 3.68052C12.7188 3.63641 12.9433 3.52042 13.12 3.34752L13.165 3.30252C13.3043 3.16305 13.4698 3.05242 13.6519 2.97693C13.8339 2.90144 14.0291 2.86259 14.2263 2.86259C14.4234 2.86259 14.6186 2.90144 14.8007 2.97693C14.9828 3.05242 15.1482 3.16305 15.2875 3.30252C15.427 3.44183 15.5376 3.60726 15.6131 3.78936C15.6886 3.97146 15.7274 4.16665 15.7274 4.36377C15.7274 4.56089 15.6886 4.75608 15.6131 4.93818C15.5376 5.12028 15.427 5.28571 15.2875 5.42502L15.2425 5.47002C15.0696 5.64678 14.9536 5.87128 14.9095 6.11458C14.8654 6.35787 14.8952 6.60881 14.995 6.83502V6.89502C15.0901 7.11685 15.2479 7.30603 15.4492 7.43929C15.6504 7.57255 15.8862 7.64406 16.1275 7.64502H16.255C16.6528 7.64502 17.0344 7.80306 17.3157 8.08436C17.597 8.36566 17.755 8.74719 17.755 9.14502C17.755 9.54284 17.597 9.92437 17.3157 10.2057C17.0344 10.487 16.6528 10.645 16.255 10.645H16.1875C15.9462 10.646 15.7104 10.7175 15.5092 10.8507C15.3079 10.984 15.1501 11.1732 15.055 11.395Z" stroke="#7788A7" stroke-width="2" stroke-linecap="round" stroke-linejoin="round"/>
</g>
<defs>
<clipPath id="clip0_2_469">
<rect width="18" height="18" fill="white" transform="translate(0.505005 0.14502)"/>
</clipPath>
</defs>
</svg>
